<?xml version="1.0" encoding="UTF-8" standalone="no"?>
<svg
   xmlns:dc="http://purl.org/dc/elements/1.1/"
   xmlns:cc="http://creativecommons.org/ns#"
   xmlns:rdf="http://www.w3.org/1999/02/22-rdf-syntax-ns#"
   xmlns:svg="http://www.w3.org/2000/svg"
   xmlns="http://www.w3.org/2000/svg"
   xmlns:sodipodi="http://sodipodi.sourceforge.net/DTD/sodipodi-0.dtd"
   xmlns:inkscape="http://www.inkscape.org/namespaces/inkscape"
   width="64px"
   height="64px"
   id="svg2"
   version="1.1"
   inkscape:version="0.48.3.1 r9886"
   sodipodi:docname="nav_exit_right_bk.svg">
  <metadata
     id="metadata14">
    <rdf:RDF>
      <cc:Work
         rdf:about="">
        <dc:format>image/svg+xml</dc:format>
        <dc:type
           rdf:resource="http://purl.org/dc/dcmitype/StillImage" />
      </cc:Work>
    </rdf:RDF>
  </metadata>
  <defs
     id="defs12" />
  <sodipodi:namedview
     pagecolor="#ffffff"
     bordercolor="#666666"
     borderopacity="1"
     objecttolerance="10"
     gridtolerance="10"
     guidetolerance="10"
     inkscape:pageopacity="0"
     inkscape:pageshadow="2"
     inkscape:window-width="1280"
     inkscape:window-height="955"
     id="namedview10"
     showgrid="false"
     inkscape:zoom="8.3858445"
     inkscape:cx="35.592724"
     inkscape:cy="33.848742"
     inkscape:window-x="0"
     inkscape:window-y="24"
     inkscape:window-maximized="1"
     inkscape:current-layer="svg2" />
  <g
     transform="matrix(0.16636255,0,0,0.17867435,0.95840936,0.95533196)"
     id="g3782"
     style="fill:#000000;fill-opacity:1">
    <path
       inkscape:connector-curvature="0"
       id="path8-9"
       d="m 111.25,0.25 c 17,0 34,0 51,0 -4.53,115.47 -8.94,231.06 -13,347 -49.67,0 -99.33,0 -149,0 0,-1 0,-2 0,-3 37.73,-113.94 73.56,-229.77 111,-344 z"
       style="fill:#000000;fill-opacity:1" />
    <path
       style="fill:#000000;fill-opacity:1"
       inkscape:connector-curvature="0"
       id="path8-3"
       d="m 228.25,0.2500037 c -8.5,0 -17,0 -25.5,0 -8.5,0 -17,0 -25.5,0 4.53,115.4700063 8.94,231.0599963 13,346.9999963 24.835,0 49.6675,0 74.5,0 24.8325,0 49.665,0 74.5,0 0,-1 0,-2 0,-3 C 301.52,230.31 265.69,114.48001 228.25,0.2500037 z"
       sodipodi:nodetypes="csccsccc" />
  </g>
  <g
     id="g4"
     transform="matrix(0.66667323,0,0,0.66667323,24.099823,-1.433862)"
     style="fill:#000000;fill-opacity:1;stroke:#000000;stroke-opacity:1">
    <path
       d="M 30.747903,48.618231 C 30.79993,34.998586 33.050776,28.50703 42,20"
       style="fill:#000000;fill-opacity:1;stroke:#000000;stroke-width:10.00040150000000061;stroke-linecap:butt;stroke-linejoin:miter;stroke-miterlimit:4;stroke-opacity:1;stroke-dasharray:none"
       id="path6"
       inkscape:connector-curvature="0"
       sodipodi:nodetypes="cc" />
    <path
       transform="matrix(2.1213203,2.1213203,-2.1213203,2.1213203,42,20)"
       d="M -4,1 0,-7 4,1 C 2,-1 -2,-1 -4,1"
       style="fill:#000000;fill-opacity:1;stroke:#000000;stroke-linejoin:round;stroke-opacity:1"
       id="path8"
       inkscape:connector-curvature="0" />
  </g>
</svg>
