<?xml version="1.0" encoding="UTF-8" standalone="no"?>
<!-- Created with Inkscape (http://www.inkscape.org/) -->

<svg
   xmlns:dc="http://purl.org/dc/elements/1.1/"
   xmlns:cc="http://creativecommons.org/ns#"
   xmlns:rdf="http://www.w3.org/1999/02/22-rdf-syntax-ns#"
   xmlns:svg="http://www.w3.org/2000/svg"
   xmlns="http://www.w3.org/2000/svg"
   xmlns:xlink="http://www.w3.org/1999/xlink"
   xmlns:sodipodi="http://sodipodi.sourceforge.net/DTD/sodipodi-0.dtd"
   xmlns:inkscape="http://www.inkscape.org/namespaces/inkscape"
   width="48"
   height="48"
   id="svg2"
   version="1.1"
   inkscape:version="0.48.3.1 r9886"
   sodipodi:docname="profile_truck.svg"
   inkscape:export-filename="/home/michael/src/navit-artwork/profile_truck.png"
   inkscape:export-xdpi="134.99994"
   inkscape:export-ydpi="134.99994">
  <defs
     id="defs4">
    <clipPath
       clipPathUnits="userSpaceOnUse"
       id="clipPath428">
      <path
         inkscape:connector-curvature="0"
         d="M 0,96 96,96 96,0 0,0 0,96 z"
         id="path430" />
    </clipPath>
    <clipPath
       clipPathUnits="userSpaceOnUse"
       id="clipPath416">
      <path
         inkscape:connector-curvature="0"
         d="M 0,96 96,96 96,0 0,0 0,96 z"
         id="path418" />
    </clipPath>
    <clipPath
       clipPathUnits="userSpaceOnUse"
       id="clipPath544">
      <path
         inkscape:connector-curvature="0"
         d="M 0,96 96,96 96,0 0,0 0,96 z"
         id="path546" />
    </clipPath>
    <radialGradient
       r="60"
       fy="72"
       fx="72"
       cy="72"
       cx="72"
       gradientUnits="userSpaceOnUse"
       id="radialGradient3969"
       xlink:href="#linearGradient3785"
       inkscape:collect="always" />
    <radialGradient
       inkscape:collect="always"
       xlink:href="#linearGradient3785"
       id="radialGradient3926"
       gradientUnits="userSpaceOnUse"
       cx="72"
       cy="72"
       fx="72"
       fy="72"
       r="60" />
    <linearGradient
       id="linearGradient3785">
      <stop
         id="stop3787"
         offset="0"
         style="stop-color:#3e3e3e;stop-opacity:1;" />
      <stop
         id="stop3789"
         offset="1"
         style="stop-color:#000000;stop-opacity:1;" />
    </linearGradient>
    <radialGradient
       gradientUnits="userSpaceOnUse"
       r="60"
       fy="72"
       fx="72"
       cy="72"
       cx="72"
       id="radialGradient3791"
       xlink:href="#linearGradient3785"
       inkscape:collect="always" />
  </defs>
  <sodipodi:namedview
     id="base"
     pagecolor="#ffffff"
     bordercolor="#666666"
     borderopacity="1.0"
     inkscape:pageopacity="0.0"
     inkscape:pageshadow="2"
     inkscape:zoom="15.8125"
     inkscape:cx="24"
     inkscape:cy="24"
     inkscape:document-units="px"
     inkscape:current-layer="layer1"
     showgrid="true"
     showguides="true"
     inkscape:guide-bbox="true"
     inkscape:window-width="1280"
     inkscape:window-height="955"
     inkscape:window-x="0"
     inkscape:window-y="24"
     inkscape:window-maximized="1">
    <sodipodi:guide
       orientation="0,1"
       position="0,40"
       id="guide2985" />
    <sodipodi:guide
       orientation="0,1"
       position="0,8"
       id="guide2987" />
    <sodipodi:guide
       orientation="1,0"
       position="8,0"
       id="guide2989" />
    <sodipodi:guide
       orientation="1,0"
       position="40,0"
       id="guide2991" />
    <inkscape:grid
       type="xygrid"
       id="grid3763"
       empspacing="5"
       visible="true"
       enabled="true"
       snapvisiblegridlinesonly="true" />
  </sodipodi:namedview>
  <metadata
     id="metadata7">
    <rdf:RDF>
      <cc:Work
         rdf:about="">
        <dc:format>image/svg+xml</dc:format>
        <dc:type
           rdf:resource="http://purl.org/dc/dcmitype/StillImage" />
        <dc:title></dc:title>
      </cc:Work>
    </rdf:RDF>
  </metadata>
  <g
     inkscape:label="Layer 1"
     inkscape:groupmode="layer"
     id="layer1"
     transform="translate(0,-1004.3622)">
    <rect
       style="fill:#000000;fill-opacity:0.62745098;stroke:none"
       id="rect2993"
       width="48"
       height="48.000019"
       x="3.5527137e-15"
       y="1004.3622"
       rx="4" />
    <g
       id="g3305"
       transform="matrix(0.03430361,0,0,0.03430361,6.823219,1019.7664)"
       style="fill:#ffffff">
      <path
         id="path3291"
         d="m 295.78419,86.816926 0,248.265594 391.93206,0.32058 c -22.99976,18.79086 -37.35891,44.69108 -37.17122,78.68503 l -389.0657,-0.23146 C 257.75238,281.97351 70.642616,282.42223 66.576854,413.09434 38.473995,412.88466 34.575813,406.50199 34.30487,380.61469 l -2e-6,-99 C 33.952015,237.37253 28.42681,266.57731 61.177014,182.67997 94.875059,93.246445 85.585107,101.51291 116.0648,99.204795 L 295.78419,86.816926 z m -77.84554,146.382734 1.55116,-105.4792 -100.05012,6.20466 c -18.23966,1.22192 -18.39146,1.33642 -24.81864,22.49189 l -25.594218,68.25124 c -8.59824,20.93425 -7.229702,27.1029 16.28723,24.04306 L 217.93865,233.19966 z m 748.69629,102.39108 0.19058,55.77718 -64.6075,22.86991 -56.72662,-0.0363 C 845.7223,381.859 832.28136,354.65708 808.44981,335.5489 l 158.18513,0.0418 z"
         style="fill:#ffffff;fill-rule:evenodd;stroke:none"
         inkscape:connector-curvature="0" />
      <rect
         id="rect3293"
         style="fill:#ffffff;stroke:none"
         width="631.32404"
         height="301.70154"
         y="12.158683"
         x="335.82718" />
      <circle
         id="circle3295"
         style="fill:#ffffff;stroke:none"
         cy="412"
         cx="164"
         r="77"
         sodipodi:cx="164"
         sodipodi:cy="412"
         sodipodi:rx="77"
         sodipodi:ry="77"
         d="m 241,412 c 0,42.52593 -34.47407,77 -77,77 -42.52593,0 -77,-34.47407 -77,-77 0,-42.52593 34.47407,-77 77,-77 42.52593,0 77,34.47407 77,77 z" />
      <circle
         id="circle3297"
         style="fill:#ffffff;stroke:none"
         cy="412"
         cx="748"
         r="77"
         sodipodi:cx="748"
         sodipodi:cy="412"
         sodipodi:rx="77"
         sodipodi:ry="77"
         d="m 825,412 c 0,42.52593 -34.47407,77 -77,77 -42.52593,0 -77,-34.47407 -77,-77 0,-42.52593 34.47407,-77 77,-77 42.52593,0 77,34.47407 77,77 z" />
    </g>
  </g>
</svg>
