<?xml version="1.0" encoding="UTF-8" standalone="no"?>
<!-- Created with Inkscape (http://www.inkscape.org/) -->

<svg
   xmlns:dc="http://purl.org/dc/elements/1.1/"
   xmlns:cc="http://creativecommons.org/ns#"
   xmlns:rdf="http://www.w3.org/1999/02/22-rdf-syntax-ns#"
   xmlns:svg="http://www.w3.org/2000/svg"
   xmlns="http://www.w3.org/2000/svg"
   xmlns:xlink="http://www.w3.org/1999/xlink"
   xmlns:sodipodi="http://sodipodi.sourceforge.net/DTD/sodipodi-0.dtd"
   xmlns:inkscape="http://www.inkscape.org/namespaces/inkscape"
   width="48"
   height="48"
   id="svg2"
   version="1.1"
   inkscape:version="0.48.3.1 r9886"
   sodipodi:docname="profile_car_pedantic.svg"
   inkscape:export-filename="/home/michael/src/navit-artwork/set_center_cursor.png"
   inkscape:export-xdpi="134.99994"
   inkscape:export-ydpi="134.99994">
  <defs
     id="defs4">
    <clipPath
       clipPathUnits="userSpaceOnUse"
       id="clipPath428">
      <path
         inkscape:connector-curvature="0"
         d="M 0,96 96,96 96,0 0,0 0,96 z"
         id="path430" />
    </clipPath>
    <clipPath
       clipPathUnits="userSpaceOnUse"
       id="clipPath416">
      <path
         inkscape:connector-curvature="0"
         d="M 0,96 96,96 96,0 0,0 0,96 z"
         id="path418" />
    </clipPath>
    <clipPath
       clipPathUnits="userSpaceOnUse"
       id="clipPath544">
      <path
         inkscape:connector-curvature="0"
         d="M 0,96 96,96 96,0 0,0 0,96 z"
         id="path546" />
    </clipPath>
    <radialGradient
       r="60"
       fy="72"
       fx="72"
       cy="72"
       cx="72"
       gradientUnits="userSpaceOnUse"
       id="radialGradient3969"
       xlink:href="#linearGradient3785"
       inkscape:collect="always" />
    <radialGradient
       inkscape:collect="always"
       xlink:href="#linearGradient3785"
       id="radialGradient3926"
       gradientUnits="userSpaceOnUse"
       cx="72"
       cy="72"
       fx="72"
       fy="72"
       r="60" />
    <linearGradient
       id="linearGradient3785">
      <stop
         id="stop3787"
         offset="0"
         style="stop-color:#3e3e3e;stop-opacity:1;" />
      <stop
         id="stop3789"
         offset="1"
         style="stop-color:#000000;stop-opacity:1;" />
    </linearGradient>
    <radialGradient
       gradientUnits="userSpaceOnUse"
       r="60"
       fy="72"
       fx="72"
       cy="72"
       cx="72"
       id="radialGradient3791"
       xlink:href="#linearGradient3785"
       inkscape:collect="always" />
  </defs>
  <sodipodi:namedview
     id="base"
     pagecolor="#ffffff"
     bordercolor="#666666"
     borderopacity="1.0"
     inkscape:pageopacity="0.0"
     inkscape:pageshadow="2"
     inkscape:zoom="15.8125"
     inkscape:cx="24"
     inkscape:cy="24"
     inkscape:document-units="px"
     inkscape:current-layer="layer1"
     showgrid="true"
     showguides="true"
     inkscape:guide-bbox="true"
     inkscape:window-width="1280"
     inkscape:window-height="955"
     inkscape:window-x="0"
     inkscape:window-y="24"
     inkscape:window-maximized="1">
    <sodipodi:guide
       orientation="0,1"
       position="0,40"
       id="guide2985" />
    <sodipodi:guide
       orientation="0,1"
       position="0,8"
       id="guide2987" />
    <sodipodi:guide
       orientation="1,0"
       position="8,0"
       id="guide2989" />
    <sodipodi:guide
       orientation="1,0"
       position="40,0"
       id="guide2991" />
    <inkscape:grid
       type="xygrid"
       id="grid3763"
       empspacing="5"
       visible="true"
       enabled="true"
       snapvisiblegridlinesonly="true" />
  </sodipodi:namedview>
  <metadata
     id="metadata7">
    <rdf:RDF>
      <cc:Work
         rdf:about="">
        <dc:format>image/svg+xml</dc:format>
        <dc:type
           rdf:resource="http://purl.org/dc/dcmitype/StillImage" />
        <dc:title></dc:title>
      </cc:Work>
    </rdf:RDF>
  </metadata>
  <g
     inkscape:label="Layer 1"
     inkscape:groupmode="layer"
     id="layer1"
     transform="translate(0,-1004.3622)">
    <rect
       style="fill:#000000;fill-opacity:0.62745098;stroke:none"
       id="rect2993"
       width="48"
       height="48.000019"
       x="3.5527137e-15"
       y="1004.3622"
       rx="4" />
    <path
       d="m 23.573362,1025.1724 c -1.449472,0 -2.218385,0.7913 -2.573362,1.7176 l -1.884318,4.8653 c -0.746978,0.096 -2.071143,0.9727 -2.071143,2.6338 l 0,6.1873 1.834097,0 0,1.9788 c 0,2.4344 3.445207,2.4057 3.445209,0 l 0,-1.9788 6.197361,0 0.0021,0 6.197356,0 0,1.9788 c 0,2.4057 3.445193,2.4344 3.445212,0 l 0,-1.9788 1.834094,0 0,-6.1873 c 0,-1.6611 -1.324156,-2.5378 -2.071147,-2.6338 l -1.886352,-4.8653 c -0.354975,-0.9263 -1.12388,-1.7176 -2.573363,-1.7176 l -2.663753,0 -4.536034,0 -2.695896,0 z m -0.0221,1.7718 4.965925,0 0.0041,0 0.0021,0 4.967929,0 c 0.621172,0.011 0.887212,0.3942 1.064698,0.932 l 1.420267,3.829 -7.452894,0 -0.0021,0 -0.0041,0 -7.450895,0 1.420269,-3.829 c 0.177489,-0.5378 0.443462,-0.9262 1.0647,-0.932 z m -2.894779,6.6232 c 0.878953,0 1.591024,0.7335 1.591024,1.6393 0,0.9059 -0.712071,1.6412 -1.591024,1.6412 -0.878888,0 -1.591024,-0.7353 -1.591024,-1.6412 0,-0.9058 0.712136,-1.6393 1.591024,-1.6393 z m 15.73145,0 c 0.878952,0 1.591029,0.7335 1.591024,1.6393 0,0.9059 -0.712072,1.6412 -1.591024,1.6412 -0.878887,0 -1.593038,-0.7353 -1.593038,-1.6412 0,-0.9058 0.714151,-1.6393 1.593038,-1.6393 z"
       id="path2301"
       style="fill:#ffffff;stroke:none"
       inkscape:connector-curvature="0" />
    <rect
       style="fill:#ffffff;fill-opacity:1;stroke:none"
       id="rect4386"
       width="11"
       height="1"
       x="8"
       y="1017.3622" />
    <rect
       style="fill:#ffffff;fill-opacity:1;stroke:none"
       id="rect4388"
       width="1"
       height="11.000017"
       x="13"
       y="1012.3622" />
  </g>
</svg>
