<?xml version="1.0" encoding="UTF-8" standalone="no"?>
<!-- Created with Inkscape (http://www.inkscape.org/) -->

<svg
   xmlns:dc="http://purl.org/dc/elements/1.1/"
   xmlns:cc="http://creativecommons.org/ns#"
   xmlns:rdf="http://www.w3.org/1999/02/22-rdf-syntax-ns#"
   xmlns:svg="http://www.w3.org/2000/svg"
   xmlns="http://www.w3.org/2000/svg"
   xmlns:xlink="http://www.w3.org/1999/xlink"
   xmlns:sodipodi="http://sodipodi.sourceforge.net/DTD/sodipodi-0.dtd"
   xmlns:inkscape="http://www.inkscape.org/namespaces/inkscape"
   width="48"
   height="48"
   id="svg2"
   version="1.1"
   inkscape:version="0.48.3.1 r9886"
   sodipodi:docname="profile_car_avoid_tolls.svg"
   inkscape:export-filename="/home/michael/src/navit-artwork/car_avoid_tolls.png"
   inkscape:export-xdpi="134.99994"
   inkscape:export-ydpi="134.99994">
  <defs
     id="defs4">
    <clipPath
       clipPathUnits="userSpaceOnUse"
       id="clipPath428">
      <path
         inkscape:connector-curvature="0"
         d="M 0,96 96,96 96,0 0,0 0,96 z"
         id="path430" />
    </clipPath>
    <clipPath
       clipPathUnits="userSpaceOnUse"
       id="clipPath416">
      <path
         inkscape:connector-curvature="0"
         d="M 0,96 96,96 96,0 0,0 0,96 z"
         id="path418" />
    </clipPath>
    <clipPath
       clipPathUnits="userSpaceOnUse"
       id="clipPath544">
      <path
         inkscape:connector-curvature="0"
         d="M 0,96 96,96 96,0 0,0 0,96 z"
         id="path546" />
    </clipPath>
    <radialGradient
       r="60"
       fy="72"
       fx="72"
       cy="72"
       cx="72"
       gradientUnits="userSpaceOnUse"
       id="radialGradient3969"
       xlink:href="#linearGradient3785"
       inkscape:collect="always" />
    <radialGradient
       inkscape:collect="always"
       xlink:href="#linearGradient3785"
       id="radialGradient3926"
       gradientUnits="userSpaceOnUse"
       cx="72"
       cy="72"
       fx="72"
       fy="72"
       r="60" />
    <linearGradient
       id="linearGradient3785">
      <stop
         id="stop3787"
         offset="0"
         style="stop-color:#3e3e3e;stop-opacity:1;" />
      <stop
         id="stop3789"
         offset="1"
         style="stop-color:#000000;stop-opacity:1;" />
    </linearGradient>
    <radialGradient
       gradientUnits="userSpaceOnUse"
       r="60"
       fy="72"
       fx="72"
       cy="72"
       cx="72"
       id="radialGradient3791"
       xlink:href="#linearGradient3785"
       inkscape:collect="always" />
  </defs>
  <sodipodi:namedview
     id="base"
     pagecolor="#ffffff"
     bordercolor="#666666"
     borderopacity="1.0"
     inkscape:pageopacity="0.0"
     inkscape:pageshadow="2"
     inkscape:zoom="15.8125"
     inkscape:cx="24"
     inkscape:cy="24"
     inkscape:document-units="px"
     inkscape:current-layer="layer1"
     showgrid="true"
     showguides="true"
     inkscape:guide-bbox="true"
     inkscape:window-width="1280"
     inkscape:window-height="955"
     inkscape:window-x="0"
     inkscape:window-y="24"
     inkscape:window-maximized="1">
    <sodipodi:guide
       orientation="0,1"
       position="0,40"
       id="guide2985" />
    <sodipodi:guide
       orientation="0,1"
       position="0,8"
       id="guide2987" />
    <sodipodi:guide
       orientation="1,0"
       position="8,0"
       id="guide2989" />
    <sodipodi:guide
       orientation="1,0"
       position="40,0"
       id="guide2991" />
    <inkscape:grid
       type="xygrid"
       id="grid3763"
       empspacing="5"
       visible="true"
       enabled="true"
       snapvisiblegridlinesonly="true" />
  </sodipodi:namedview>
  <metadata
     id="metadata7">
    <rdf:RDF>
      <cc:Work
         rdf:about="">
        <dc:format>image/svg+xml</dc:format>
        <dc:type
           rdf:resource="http://purl.org/dc/dcmitype/StillImage" />
        <dc:title></dc:title>
      </cc:Work>
    </rdf:RDF>
  </metadata>
  <g
     inkscape:label="Layer 1"
     inkscape:groupmode="layer"
     id="layer1"
     transform="translate(0,-1004.3622)">
    <rect
       style="fill:#000000;fill-opacity:0.62745098;stroke:none"
       id="rect2993"
       width="48"
       height="48.000019"
       x="3.5527137e-15"
       y="1004.3622"
       rx="4" />
    <path
       d="m 23.573362,1025.1724 c -1.449472,0 -2.218385,0.7913 -2.573362,1.7176 l -1.884318,4.8653 c -0.746978,0.096 -2.071143,0.9727 -2.071143,2.6338 l 0,6.1873 1.834097,0 0,1.9788 c 0,2.4344 3.445207,2.4057 3.445209,0 l 0,-1.9788 6.197361,0 0.0021,0 6.197356,0 0,1.9788 c 0,2.4057 3.445193,2.4344 3.445212,0 l 0,-1.9788 1.834094,0 0,-6.1873 c 0,-1.6611 -1.324156,-2.5378 -2.071147,-2.6338 l -1.886352,-4.8653 c -0.354975,-0.9263 -1.12388,-1.7176 -2.573363,-1.7176 l -2.663753,0 -4.536034,0 -2.695896,0 z m -0.0221,1.7718 4.965925,0 0.0041,0 0.0021,0 4.967929,0 c 0.621172,0.011 0.887212,0.3942 1.064698,0.932 l 1.420267,3.829 -7.452894,0 -0.0021,0 -0.0041,0 -7.450895,0 1.420269,-3.829 c 0.177489,-0.5378 0.443462,-0.9262 1.0647,-0.932 z m -2.894779,6.6232 c 0.878953,0 1.591024,0.7335 1.591024,1.6393 0,0.9059 -0.712071,1.6412 -1.591024,1.6412 -0.878888,0 -1.591024,-0.7353 -1.591024,-1.6412 0,-0.9058 0.712136,-1.6393 1.591024,-1.6393 z m 15.73145,0 c 0.878952,0 1.591029,0.7335 1.591024,1.6393 0,0.9059 -0.712072,1.6412 -1.591024,1.6412 -0.878887,0 -1.593038,-0.7353 -1.593038,-1.6412 0,-0.9058 0.714151,-1.6393 1.593038,-1.6393 z"
       id="path2301"
       style="fill:#ffffff;stroke:none"
       inkscape:connector-curvature="0" />
    <g
       id="g4286"
       transform="matrix(1.1663982,0,0,1.1663982,-1.2739866,-168.39503)">
      <path
         id="path5307"
         transform="translate(0,1004.3622)"
         d="m 12.28125,8.03125 c -0.449328,0.0087 -0.804992,0.40175 -1.25,0.59375 -0.139565,0.0522 -0.289174,0.16175 -0.4375,0.21875 l -1.5,0.75 L 8.375,9.9375 8,10.15625 l 0.03125,3.875 c 0.7677902,0.0087 1.5782153,-0.2383 2.25,-0.5 0.178929,-0.1353 0.321163,-0.20405 0.5,-0.34375 0.218169,-0.1003 0.35889,-0.29075 0.625,-0.34375 0.126546,-0.0611 0.230962,-0.09025 0.375,-0.15625 l 0.125,-0.03125 1.75,-1.75 -1.875,0.25 0.0625,-0.40625 0.25,-0.21875 0.1875,-0.0625 1.0625,0.3125 0.46875,-0.03125 1.21875,-1.21875 -1,-0.5625 -1,-0.59375 C 12.760759,8.2091 12.564821,8.03125 12.28125,8.03125 z M 16.75,10.6875 16.0625,11.375 c 0.0015,0.0096 -0.0012,0.02164 0,0.03125 0.04744,0.384462 -0.16836,0.803 -0.6875,0.96875 0.161436,0.1085 0.375581,0.15625 0.59375,0.15625 0.610734,0 1.09375,-0.48725 1.09375,-1.09375 0,-0.294137 -0.123299,-0.551506 -0.3125,-0.75 z m -0.96875,0.96875 -0.5625,0.5625 c 0.329451,-0.09168 0.515793,-0.316824 0.5625,-0.5625 z m -0.59375,0.75 L 15,12.4375 13.65625,13.78125 c 0.16586,0.05551 0.361015,0.02168 0.53125,-0.03125 0.02616,0.039 0.05448,0.0725 0.09375,0.125 0.148295,0.1527 0.428765,0.173 0.625,0.125 L 15.5,13.375 c 0.24433,-0.2356 0.449805,-0.4694 0.59375,-0.6875 -0.340273,0.026 -0.64014,-0.07215 -0.90625,-0.28125 z m 1.40625,1.3125 c -0.391587,0.02353 -0.734256,0.270075 -0.875,0.65625 -0.183217,0.5147 0.0702,1.09365 0.59375,1.28125 0.52346,0.1876 1.09794,-0.1101 1.28125,-0.625 C 17.781316,14.51655 17.523552,13.9377 17,13.75 16.869135,13.703125 16.724279,13.710906 16.59375,13.71875 z M 14.9375,16.4375 c -0.0968,-0.0057 -0.184181,-0.0037 -0.28125,0.03125 -0.388245,0.1396 -0.604027,0.5493 -0.46875,0.9375 0.139565,0.3883 0.580474,0.60835 0.96875,0.46875 0.388245,-0.1396 0.577157,-0.58045 0.4375,-0.96875 -0.101388,-0.291225 -0.365862,-0.451786 -0.65625,-0.46875 z m 1.9375,0.875 c -0.121546,-0.0054 -0.253922,0.01888 -0.375,0.0625 -0.48428,0.1702 -0.737047,0.7075 -0.5625,1.1875 0.170106,0.4799 0.70322,0.70145 1.1875,0.53125 0.484219,-0.1745 0.763918,-0.7076 0.59375,-1.1875 -0.130842,-0.359925 -0.479111,-0.5774 -0.84375,-0.59375 z"
         style="fill:#ffffff;fill-opacity:1;fill-rule:evenodd;stroke:none"
         inkscape:connector-curvature="0" />
      <path
         inkscape:connector-curvature="0"
         id="path3453-8"
         d="m 17.65625,1012 -10,10 0.6875,0.7188 10,-10 -0.6875,-0.7188 z"
         style="font-size:medium;font-style:normal;font-variant:normal;font-weight:normal;font-stretch:normal;text-indent:0;text-align:start;text-decoration:none;line-height:normal;letter-spacing:normal;word-spacing:normal;text-transform:none;direction:ltr;block-progression:tb;writing-mode:lr-tb;text-anchor:start;baseline-shift:baseline;color:#000000;fill:#ffffff;fill-opacity:1;stroke:none;stroke-width:1px;marker:none;visibility:visible;display:inline;overflow:visible;enable-background:accumulate;font-family:Sans;-inkscape-font-specification:Sans" />
    </g>
  </g>
</svg>
