<?xml version="1.0" encoding="UTF-8" standalone="no"?>
<!-- Created with Inkscape (http://www.inkscape.org/) -->

<svg
   xmlns:dc="http://purl.org/dc/elements/1.1/"
   xmlns:cc="http://creativecommons.org/ns#"
   xmlns:rdf="http://www.w3.org/1999/02/22-rdf-syntax-ns#"
   xmlns:svg="http://www.w3.org/2000/svg"
   xmlns="http://www.w3.org/2000/svg"
   xmlns:xlink="http://www.w3.org/1999/xlink"
   xmlns:sodipodi="http://sodipodi.sourceforge.net/DTD/sodipodi-0.dtd"
   xmlns:inkscape="http://www.inkscape.org/namespaces/inkscape"
   width="128"
   height="142"
   id="svg2"
   version="1.1"
   inkscape:version="0.48.3.1 r9886"
   sodipodi:docname="status_calculating.svg"
   inkscape:export-filename="/home/michael/src/navit-artwork/status_calculating.png"
   inkscape:export-xdpi="90"
   inkscape:export-ydpi="90">
  <defs
     id="defs4">
    <radialGradient
       r="60"
       fy="72"
       fx="72"
       cy="72"
       cx="72"
       gradientUnits="userSpaceOnUse"
       id="radialGradient3969"
       xlink:href="#linearGradient3785"
       inkscape:collect="always" />
    <radialGradient
       inkscape:collect="always"
       xlink:href="#linearGradient3785"
       id="radialGradient3926"
       gradientUnits="userSpaceOnUse"
       cx="72"
       cy="72"
       fx="72"
       fy="72"
       r="60" />
    <linearGradient
       id="linearGradient3785">
      <stop
         id="stop3787"
         offset="0"
         style="stop-color:#3e3e3e;stop-opacity:1;" />
      <stop
         id="stop3789"
         offset="1"
         style="stop-color:#000000;stop-opacity:1;" />
    </linearGradient>
    <radialGradient
       gradientUnits="userSpaceOnUse"
       r="60"
       fy="72"
       fx="72"
       cy="72"
       cx="72"
       id="radialGradient3791"
       xlink:href="#linearGradient3785"
       inkscape:collect="always" />
    <radialGradient
       r="60"
       fy="72"
       fx="72"
       cy="72"
       cx="72"
       gradientUnits="userSpaceOnUse"
       id="radialGradient3969-9"
       xlink:href="#linearGradient3785-0"
       inkscape:collect="always" />
    <radialGradient
       inkscape:collect="always"
       xlink:href="#linearGradient3785-0"
       id="radialGradient3926-4"
       gradientUnits="userSpaceOnUse"
       cx="72"
       cy="72"
       fx="72"
       fy="72"
       r="60" />
    <linearGradient
       id="linearGradient3785-0">
      <stop
         id="stop3787-9"
         offset="0"
         style="stop-color:#3e3e3e;stop-opacity:1;" />
      <stop
         id="stop3789-0"
         offset="1"
         style="stop-color:#000000;stop-opacity:1;" />
    </linearGradient>
    <radialGradient
       gradientUnits="userSpaceOnUse"
       r="60"
       fy="72"
       fx="72"
       cy="72"
       cx="72"
       id="radialGradient3791-0"
       xlink:href="#linearGradient3785-0"
       inkscape:collect="always" />
  </defs>
  <sodipodi:namedview
     id="base"
     pagecolor="#ffffff"
     bordercolor="#666666"
     borderopacity="1.0"
     inkscape:pageopacity="0.0"
     inkscape:pageshadow="2"
     inkscape:zoom="5.3450704"
     inkscape:cx="57.545454"
     inkscape:cy="63.516469"
     inkscape:document-units="px"
     inkscape:current-layer="layer1"
     showgrid="false"
     showguides="true"
     inkscape:guide-bbox="true"
     inkscape:window-width="1280"
     inkscape:window-height="955"
     inkscape:window-x="0"
     inkscape:window-y="24"
     inkscape:window-maximized="1">
    <sodipodi:guide
       orientation="0,1"
       position="0,115"
       id="guide2987" />
    <sodipodi:guide
       orientation="1,0"
       position="20,0"
       id="guide2989" />
    <sodipodi:guide
       orientation="1,0"
       position="108,0"
       id="guide2991" />
    <sodipodi:guide
       orientation="0,1"
       position="0,27"
       id="guide2993" />
    <sodipodi:guide
       orientation="1,0"
       position="64,0"
       id="guide4707" />
    <sodipodi:guide
       orientation="0,1"
       position="0,71"
       id="guide4709" />
  </sodipodi:namedview>
  <metadata
     id="metadata7">
    <rdf:RDF>
      <cc:Work
         rdf:about="">
        <dc:format>image/svg+xml</dc:format>
        <dc:type
           rdf:resource="http://purl.org/dc/dcmitype/StillImage" />
        <dc:title></dc:title>
      </cc:Work>
    </rdf:RDF>
  </metadata>
  <g
     inkscape:label="Layer 1"
     inkscape:groupmode="layer"
     id="layer1"
     transform="translate(0,-910.36218)">
    <rect
       style="fill:#000000;fill-opacity:0.62745098;stroke:none"
       id="rect3943"
       width="127.96838"
       height="141.81291"
       x="0"
       y="910.54926" />
    <g
       transform="matrix(0.68862982,0,0,0.68862982,19.911883,937.28643)"
       id="g3766"
       style="fill:#ffffff;fill-opacity:1">
      <g
         style="fill:#ffffff;fill-opacity:1"
         id="g7">
        <path
           d="M 104.32,113.62 C 103.58,82.79 89.68,75.68 81.27,71.4 c -1.44,-0.74 -2.69,-1.38 -3.71,-2.04 -2.17,-1.39 -3.21,-3.02 -3.21,-5 0,-1.98 1.04,-3.61 3.21,-5 1.03,-0.66 2.27,-1.29 3.71,-2.03 8.47,-4.32 22.52,-11.52 23.06,-42.97 3.23,-0.71 5.67,-3.59 5.67,-7.04 0,-3.99 -3.24,-7.21 -7.21,-7.21 H 25.22 C 21.24,0.11 18,3.33 18,7.32 c 0,3.4 2.36,6.23 5.51,7 0.52,31.5 14.59,38.7 23.07,43.02 1.44,0.73 2.68,1.37 3.71,2.02 2.15,1.39 3.2,3.03 3.2,5.01 0,1.98 -1.05,3.61 -3.2,5 -1.03,0.66 -2.27,1.29 -3.71,2.03 -8.41,4.29 -22.33,11.4 -23.06,42.28 -3.16,0.77 -5.52,3.6 -5.52,7 0,3.98 3.24,7.22 7.22,7.22 h 77.57 c 3.97,0 7.21,-3.24 7.21,-7.22 0,-3.47 -2.44,-6.36 -5.68,-7.06 z M 48.65,75.47 c 1.49,-0.76 2.89,-1.48 4.11,-2.26 4.38,-2.82 5.3,-6.37 5.3,-8.84 0,-2.48 -0.92,-6.03 -5.31,-8.85 -1.21,-0.78 -2.61,-1.49 -4.1,-2.25 C 40.18,48.95 28.66,43.08 28.07,14.8 h 71.7 c -0.59,28.27 -12.11,34.15 -20.58,38.47 -1.48,0.76 -2.89,1.47 -4.1,2.25 -4.39,2.82 -5.31,6.37 -5.31,8.85 0,2.48 0.92,6.02 5.31,8.84 1.22,0.78 2.62,1.5 4.1,2.26 8.42,4.29 19.85,10.14 20.56,37.98 H 28.09 C 28.81,85.6 40.24,79.76 48.65,75.47 z"
           id="path9"
           inkscape:connector-curvature="0"
           style="fill:#ffffff;fill-opacity:1" />
      </g>
      <path
         d="M 93.25,96.46 H 65.81 v -32.1 h 0.02 c 0,-4.89 2.53,-9.21 7.13,-12.16 1.35,-0.88 2.8,-1.62 4.33,-2.4 2.52,-1.29 5.34,-2.75 8.02,-5.04 H 42.53 c 2.65,2.28 5.44,3.72 7.91,4.98 1.65,0.84 3.09,1.58 4.44,2.45 4.59,2.95 7.12,7.27 7.12,12.17 h 0.02 v 32.1 H 34.6 c -1.19,3.62 -2.04,8.04 -2.4,13.52 h 63.44 c -0.36,-5.48 -1.21,-9.9 -2.39,-13.52 z"
         id="path11"
         inkscape:connector-curvature="0"
         style="fill:#ffffff;fill-opacity:1" />
    </g>
  </g>
</svg>
